<?xml version="1.0" encoding="utf-8"?>
<!-- Generator: Adobe Illustrator 16.0.0, SVG Export Plug-In . SVG Version: 6.00 Build 0)  -->
<!DOCTYPE svg PUBLIC "-//W3C//DTD SVG 1.1//EN" "http://www.w3.org/Graphics/SVG/1.1/DTD/svg11.dtd">
<svg version="1.1" id="Layer_1" xmlns="http://www.w3.org/2000/svg" xmlns:xlink="http://www.w3.org/1999/xlink" x="0px" y="0px"
	 width="20px" height="5px" viewBox="0 0 20 5" enable-background="new 0 0 20 5" xml:space="preserve">
<title>자산 1</title>
<g id="레이어_2">
	<g id="Layer_1_1_">
		<polygon fill="#EC1D24" points="7.296,1.156 7.296,3.191 6.593,1.159 5.55,1.159 5.55,3.842 6.164,3.842 6.164,1.809 6.867,3.842 
			7.91,3.842 7.91,1.159 		"/>
		<path fill="#EC1D24" d="M4.124,1.159H3.376L2.428,3.842h0.666l0.214-0.648h0.868L4.39,3.842h0.684L4.124,1.159z M3.456,2.702
			L3.74,1.808l0.285,0.894H3.456z"/>
		<path fill="#EC1D24" d="M15.511,1.111c-0.755,0-1.368,0.622-1.368,1.389c0,0.766,0.613,1.389,1.367,1.389
			c0.756,0,1.369-0.621,1.369-1.389C16.879,1.733,16.266,1.111,15.511,1.111z M16.176,2.542c0,0.374-0.298,0.675-0.665,0.675
			c-0.368,0-0.665-0.302-0.665-0.675V2.457c0-0.373,0.297-0.675,0.665-0.675c0.367,0,0.665,0.302,0.665,0.675V2.542z"/>
		<polygon fill="#EC1D24" points="1.928,1.159 1.291,2.489 0.714,1.159 0,1.159 0.953,3.193 0.643,3.842 1.314,3.842 1.745,2.972 
			2.643,1.159 		"/>
		<path fill="#EC1D24" d="M10.982,2.787c0.021-0.094,0.031-0.19,0.031-0.287c0-0.096-0.01-0.191-0.027-0.286H9.833v0.577h0.453
			c-0.097,0.243-0.332,0.402-0.594,0.402c-0.354,0-0.642-0.292-0.642-0.651V2.459c0-0.361,0.287-0.652,0.642-0.652h0.971V1.159
			H9.692c-0.729,0-1.321,0.601-1.321,1.342s0.591,1.343,1.321,1.343c0.632,0,1.16-0.451,1.291-1.051l0,0V2.79V2.787z"/>
		<polygon fill="#EC1D24" points="13.357,1.159 12.721,2.489 12.143,1.159 11.43,1.159 12.382,3.193 12.072,3.842 12.744,3.842 
			13.174,2.972 14.072,1.159 		"/>
		<path fill="#EC1D24" d="M18.632,1.111c-0.755,0-1.368,0.622-1.368,1.389c0,0.766,0.613,1.389,1.368,1.389S20,3.268,20,2.5
			C20,1.733,19.389,1.111,18.632,1.111z M19.298,2.542c0,0.374-0.298,0.675-0.665,0.675s-0.665-0.302-0.665-0.675V2.457
			c0-0.373,0.298-0.675,0.665-0.675s0.665,0.302,0.665,0.675V2.542z"/>
		<polygon fill="#EC1D24" points="7.296,1.156 7.296,3.191 6.593,1.159 5.55,1.159 5.55,3.842 6.164,3.842 6.164,1.809 6.867,3.842 
			7.91,3.842 7.91,1.159 		"/>
		<path fill="#EC1D24" d="M4.124,1.159H3.376L2.428,3.842h0.666l0.214-0.648h0.868L4.39,3.842h0.684L4.124,1.159z M3.456,2.702
			L3.74,1.808l0.285,0.894H3.456z"/>
		<path fill="#EC1D24" d="M15.511,1.111c-0.755,0-1.368,0.622-1.368,1.389c0,0.766,0.613,1.389,1.367,1.389
			c0.756,0,1.369-0.621,1.369-1.389C16.879,1.733,16.266,1.111,15.511,1.111z M16.176,2.542c0,0.374-0.298,0.675-0.665,0.675
			c-0.368,0-0.665-0.302-0.665-0.675V2.457c0-0.373,0.297-0.675,0.665-0.675c0.367,0,0.665,0.302,0.665,0.675V2.542z"/>
		<polygon fill="#EC1D24" points="1.928,1.159 1.291,2.489 0.714,1.159 0,1.159 0.953,3.193 0.643,3.842 1.314,3.842 1.745,2.972 
			2.643,1.159 		"/>
		<path fill="#EC1D24" d="M10.982,2.787c0.021-0.094,0.031-0.19,0.031-0.287c0-0.096-0.01-0.191-0.027-0.286H9.833v0.577h0.453
			c-0.097,0.243-0.332,0.402-0.594,0.402c-0.354,0-0.642-0.292-0.642-0.651V2.459c0-0.361,0.287-0.652,0.642-0.652h0.971V1.159
			H9.692c-0.729,0-1.321,0.601-1.321,1.342s0.591,1.343,1.321,1.343c0.632,0,1.16-0.451,1.291-1.051l0,0V2.79V2.787z"/>
		<polygon fill="#EC1D24" points="13.357,1.159 12.721,2.489 12.143,1.159 11.43,1.159 12.382,3.193 12.072,3.842 12.744,3.842 
			13.174,2.972 14.072,1.159 		"/>
		<path fill="#EC1D24" d="M18.632,1.111c-0.755,0-1.368,0.622-1.368,1.389c0,0.766,0.613,1.389,1.368,1.389S20,3.268,20,2.5
			C20,1.733,19.389,1.111,18.632,1.111z M19.298,2.542c0,0.374-0.298,0.675-0.665,0.675s-0.665-0.302-0.665-0.675V2.457
			c0-0.373,0.298-0.675,0.665-0.675s0.665,0.302,0.665,0.675V2.542z"/>
	</g>
</g>
</svg>
