<svg xmlns="http://www.w3.org/2000/svg" viewBox="0 0 1028.09 142.79"><defs><style>.cls-1{fill:#0a0808;}</style></defs><title>자산 1</title><g id="레이어_2" data-name="레이어 2"><g id="Layer_1" data-name="Layer 1"><polygon class="cls-1" points="375.05 2.3 375.05 106.93 338.91 2.44 285.29 2.44 285.29 140.35 316.87 140.35 316.87 35.87 353.01 140.35 406.61 140.35 406.61 2.44 375.05 2.3"/><path class="cls-1" d="M212,2.44h-38.4L124.79,140.35H159l11-33.3h44.62l11,33.3h35.15ZM177.64,81.79l14.63-45.95,14.62,45.92Z"/><path class="cls-1" d="M797.32,0C758.5,0,727,32,727,71.39s31.49,71.4,70.31,71.4,70.32-32,70.32-71.4S836.15,0,797.32,0Zm34.2,73.57c0,19.2-15.31,34.71-34.19,34.71s-34.19-15.51-34.19-34.71V69.2c0-19.17,15.31-34.71,34.19-34.71S831.52,50,831.52,69.2Z"/><polygon class="cls-1" points="99.11 2.44 66.35 70.81 36.72 2.44 0 2.44 48.96 107.05 33.04 140.35 67.58 140.35 89.68 95.67 135.86 2.44 99.11 2.44"/><path class="cls-1" d="M564.54,86.16a69.63,69.63,0,0,0,1.6-14.77A79.87,79.87,0,0,0,564.8,56.7H505.43V86.33h23.3a33,33,0,0,1-30.51,20.72c-18.22,0-33-15-33-33.54V69.29c0-18.54,14.77-33.54,33-33.54h49.91V2.44H498.22c-37.51,0-67.91,30.87-67.91,69s30.4,69,67.91,69c32.46,0,59.56-23.14,66.29-54h0v-.17Z"/><polygon class="cls-1" points="686.63 2.44 653.85 70.81 624.22 2.44 587.52 2.44 636.49 107.05 620.54 140.35 655.09 140.35 677.18 95.67 723.36 2.44 686.63 2.44"/><path class="cls-1" d="M957.78,0C919,0,887.47,32,887.47,71.39s31.49,71.4,70.31,71.4,70.31-32,70.31-71.4S996.63,0,957.78,0ZM992,73.57c0,19.2-15.32,34.71-34.2,34.71s-34.15-15.51-34.15-34.71V69.2c0-19.17,15.27-34.71,34.15-34.71S992,50,992,69.2Z"/><polygon class="cls-1" points="375.05 2.3 375.05 106.93 338.91 2.44 285.29 2.44 285.29 140.35 316.87 140.35 316.87 35.87 353.01 140.35 406.61 140.35 406.61 2.44 375.05 2.3"/><path class="cls-1" d="M212,2.44h-38.4L124.79,140.35H159l11-33.3h44.62l11,33.3h35.15ZM177.64,81.79l14.63-45.95,14.62,45.92Z"/><path class="cls-1" d="M797.32,0C758.5,0,727,32,727,71.39s31.49,71.4,70.31,71.4,70.32-32,70.32-71.4S836.15,0,797.32,0Zm34.2,73.57c0,19.2-15.31,34.71-34.19,34.71s-34.19-15.51-34.19-34.71V69.2c0-19.17,15.31-34.71,34.19-34.71S831.52,50,831.52,69.2Z"/><polygon class="cls-1" points="99.11 2.44 66.35 70.81 36.72 2.44 0 2.44 48.96 107.05 33.04 140.35 67.58 140.35 89.68 95.67 135.86 2.44 99.11 2.44"/><path class="cls-1" d="M564.54,86.16a69.63,69.63,0,0,0,1.6-14.77A79.87,79.87,0,0,0,564.8,56.7H505.43V86.33h23.3a33,33,0,0,1-30.51,20.72c-18.22,0-33-15-33-33.54V69.29c0-18.54,14.77-33.54,33-33.54h49.91V2.44H498.22c-37.51,0-67.91,30.87-67.91,69s30.4,69,67.91,69c32.46,0,59.56-23.14,66.29-54h0v-.17Z"/><polygon class="cls-1" points="686.63 2.44 653.85 70.81 624.22 2.44 587.52 2.44 636.49 107.05 620.54 140.35 655.09 140.35 677.18 95.67 723.36 2.44 686.63 2.44"/><path class="cls-1" d="M957.78,0C919,0,887.47,32,887.47,71.39s31.49,71.4,70.31,71.4,70.31-32,70.31-71.4S996.63,0,957.78,0ZM992,73.57c0,19.2-15.32,34.71-34.2,34.71s-34.15-15.51-34.15-34.71V69.2c0-19.17,15.27-34.71,34.15-34.71S992,50,992,69.2Z"/></g></g></svg>