<svg xmlns="http://www.w3.org/2000/svg" viewBox="0 0 169.62 158.56"><defs><style>.cls-1{isolation:isolate;}.cls-2{fill:#2e2e2e;}.cls-3{fill:#231f20;}</style></defs><title>자산 1</title><g id="레이어_2" data-name="레이어 2"><g id="Layer_1" data-name="Layer 1"><g class="cls-1"><path class="cls-2" d="M27.05,12.66A13,13,0,0,1,32,18.2a18.49,18.49,0,0,1,1.77,8.29,18.38,18.38,0,0,1-1.71,8.15A12.65,12.65,0,0,1,27.22,40a13.75,13.75,0,0,1-7.28,1.9,11.49,11.49,0,0,1-4.87-1A10.66,10.66,0,0,1,11.31,38v3.53H0V0H11.31V14.62A10.26,10.26,0,0,1,15,11.7a10.9,10.9,0,0,1,4.71-1A13.9,13.9,0,0,1,27.05,12.66ZM20.83,31.11a7.57,7.57,0,0,0,1.51-4.9,7.55,7.55,0,0,0-1.51-4.9,4.92,4.92,0,0,0-4-1.88,4.88,4.88,0,0,0-4,1.88,7.6,7.6,0,0,0-1.51,4.9,7.6,7.6,0,0,0,1.51,4.9,4.88,4.88,0,0,0,4,1.88A4.92,4.92,0,0,0,20.83,31.11Z"/><path class="cls-2" d="M54.57,12a11.1,11.1,0,0,1,5.52-1.37V20.83a13.52,13.52,0,0,0-2-.11,8.51,8.51,0,0,0-5.57,1.68A5.61,5.61,0,0,0,50.51,27V41.55H39.2V11.09H50.51V15.9A11.68,11.68,0,0,1,54.57,12Z"/><path class="cls-2" d="M88.73,13.58a10,10,0,0,1,3.61,8.21V41.55H81.26V38.19a9.17,9.17,0,0,1-3.67,2.86,12.82,12.82,0,0,1-5.24,1,10.52,10.52,0,0,1-7.56-2.61,9.14,9.14,0,0,1-2.74-7,8.18,8.18,0,0,1,3-6.8q3-2.38,8.77-2.44h7.45v-.11a3.57,3.57,0,0,0-1.35-3A6.19,6.19,0,0,0,76,19.1a19,19,0,0,0-4.28.56,27.82,27.82,0,0,0-4.9,1.62L64,13.78a39.05,39.05,0,0,1,14.67-3.14Q85.12,10.64,88.73,13.58ZM79.24,33.83a4.89,4.89,0,0,0,2-2.3V28.79H76.1q-3.41,0-3.41,2.85a2.83,2.83,0,0,0,.89,2.24,3.73,3.73,0,0,0,2.52.79A6.17,6.17,0,0,0,79.24,33.83Z"/><path class="cls-2" d="M126,12.07a9.76,9.76,0,0,1,3.86,4.06,13,13,0,0,1,1.37,6.1V41.55H120V25.48a5.17,5.17,0,0,0-1.2-3.58,4.05,4.05,0,0,0-3.17-1.35,4.66,4.66,0,0,0-3.64,1.68,6.52,6.52,0,0,0-1.34,4.26V41.55H99.29V11.09H110.6v4.7A11,11,0,0,1,114.66,12a11.62,11.62,0,0,1,5.63-1.32A11.37,11.37,0,0,1,126,12.07Z"/><path class="cls-2" d="M169.62,0V41.55H158.31V38.08a10.54,10.54,0,0,1-3.64,2.86,10.88,10.88,0,0,1-4.7,1,13.84,13.84,0,0,1-7.4-2,13.13,13.13,0,0,1-4.95-5.51,18.47,18.47,0,0,1-1.77-8.32A18.38,18.38,0,0,1,137.56,18a12.61,12.61,0,0,1,4.85-5.4,13.72,13.72,0,0,1,7.28-1.9,11.38,11.38,0,0,1,4.87,1,10.58,10.58,0,0,1,3.75,2.91V0ZM156.8,31.39a7.65,7.65,0,0,0,1.51-5,7.58,7.58,0,0,0-1.51-4.9,4.86,4.86,0,0,0-4-1.87,4.91,4.91,0,0,0-4,1.87,7.57,7.57,0,0,0-1.51,4.9,7.65,7.65,0,0,0,1.51,5,4.91,4.91,0,0,0,4,1.87A4.86,4.86,0,0,0,156.8,31.39Z"/></g><g class="cls-1"><path class="cls-2" d="M0,68H11.31v41.55H0Z"/><path class="cls-2" d="M29.23,66.21a5.82,5.82,0,0,1-4.2,10,5.78,5.78,0,0,1-4.23-1.62,6.17,6.17,0,0,1,0-8.4A5.78,5.78,0,0,1,25,64.59,5.64,5.64,0,0,1,29.23,66.21Zm-9.8,12.88H30.74v30.46H19.43Z"/></g><g class="cls-1"><path class="cls-2" d="M50.34,86.2a3.22,3.22,0,0,0-1.68.37,1.17,1.17,0,0,0-.61,1.09c0,.56.38,1,1.15,1.37a23.87,23.87,0,0,0,3.66,1.2,46.76,46.76,0,0,1,5.58,1.91A10.44,10.44,0,0,1,62.3,95,7.37,7.37,0,0,1,64,100a8.66,8.66,0,0,1-3.67,7.36q-3.66,2.72-9.71,2.72a27.09,27.09,0,0,1-7.7-1.09,22.37,22.37,0,0,1-6.64-3.22l3.47-7.12a25.39,25.39,0,0,0,5.69,2.8,16.64,16.64,0,0,0,5.35,1,3.89,3.89,0,0,0,1.84-.37,1.13,1.13,0,0,0,.68-1c0-.56-.37-1-1.1-1.38a22.44,22.44,0,0,0-3.61-1.2,41.36,41.36,0,0,1-5.43-1.85,10.44,10.44,0,0,1-3.81-2.85,7.36,7.36,0,0,1-1.62-4.93,8.88,8.88,0,0,1,3.58-7.45,15.07,15.07,0,0,1,9.41-2.74,26.32,26.32,0,0,1,13.38,3.69l-3.75,7.11Q54.1,86.2,50.34,86.2Z"/></g><g class="cls-1"><path class="cls-2" d="M93,108.1a15.56,15.56,0,0,1-3.94,1.43,21.19,21.19,0,0,1-4.68.53,11,11,0,0,1-7.78-2.69A9.5,9.5,0,0,1,73.7,100V87.88H69.5V80.66h4.2V72.2H85v8.46h7.51v7.22H85V98.3a3.14,3.14,0,0,0,.67,2.18,2.47,2.47,0,0,0,1.91.73,11.59,11.59,0,0,0,3.47-.9Z"/></g><rect class="cls-3" x="1.39" y="153.06" width="20.62" height="5.5"/></g></g></svg>