<?xml version="1.0" encoding="utf-8"?>
<!-- Generator: Adobe Illustrator 16.0.0, SVG Export Plug-In . SVG Version: 6.00 Build 0)  -->
<!DOCTYPE svg PUBLIC "-//W3C//DTD SVG 1.1//EN" "http://www.w3.org/Graphics/SVG/1.1/DTD/svg11.dtd">
<svg version="1.1" id="Layer_1" xmlns="http://www.w3.org/2000/svg" xmlns:xlink="http://www.w3.org/1999/xlink" x="0px" y="0px"
	 width="514.5px" height="300px" viewBox="0 0 514.5 300" enable-background="new 0 0 514.5 300" xml:space="preserve">
<title>자산 1</title>
<g id="레이어_2">
	<g id="Layer_1_1_">
		<rect x="3.044" y="281.206" width="39.481" height="10.53"/>
	</g>
</g>
<g>
	<path fill="#2E2E2E" d="M19.945,92.001c6.146,0,11.397-1.466,15.608-4.358c4.205-2.892,7.553-7.398,9.954-13.396L71.191,7.783
		H48.114L36.961,44.556L23.879,7.949L23.82,7.783H0.067l25.318,59.525l-1.069,2.031c-1.238,2.545-3.327,3.782-6.388,3.782
		c-1.452,0-2.815-0.257-4.052-0.765c-1.239-0.511-2.572-1.401-3.963-2.646l-0.222-0.198L0,85.089l0.182,0.137
		c3.07,2.321,6.223,4.049,9.371,5.136C12.706,91.45,16.202,92.001,19.945,92.001z"/>
	<path fill="#2E2E2E" d="M79.131,37.032c-4.041,3.211-6.09,7.858-6.09,13.812c0,5.873,1.874,10.628,5.57,14.134
		c3.691,3.504,8.839,5.28,15.302,5.28c3.977,0,7.537-0.686,10.58-2.039c2.814-1.25,5.162-3.006,6.989-5.224v6.254h22.69v-39.81
		c0-7.069-2.463-12.658-7.321-16.612c-4.843-3.941-11.664-5.94-20.275-5.94c-9.252,0-19.163,2.118-29.457,6.294l-0.226,0.091
		l5.781,15.491l0.241-0.104c3.258-1.406,6.543-2.495,9.763-3.236c7.675-1.762,13.207-1.412,16.208,0.961
		c1.716,1.359,2.588,3.283,2.595,5.718H96.824C89.106,32.178,83.154,33.837,79.131,37.032z M94.835,49.164
		c0-3.678,2.154-5.465,6.586-5.465h10.061v5.19c-0.799,1.861-2.115,3.353-3.913,4.432c-1.82,1.092-3.889,1.646-6.147,1.646
		c-2.097,0-3.738-0.507-4.879-1.507C95.41,52.468,94.835,51.023,94.835,49.164z"/>
	<path fill="#2E2E2E" d="M212.958,69.25V30.335c0-4.648-0.933-8.797-2.774-12.332c-1.847-3.538-4.481-6.306-7.83-8.226
		c-3.349-1.918-7.255-2.891-11.612-2.891c-4.279,0-8.108,0.896-11.382,2.664c-3.048,1.647-5.654,4.023-7.756,7.071V7.783h-23.139
		V69.25h23.139V38.853c0-3.434,0.886-6.247,2.632-8.358c1.737-2.098,4.125-3.199,7.092-3.271c2.528,0,4.595,0.877,6.146,2.606
		c1.557,1.738,2.346,4.095,2.346,7.006V69.25H212.958z"/>
	<path fill="#2E2E2E" d="M235.045,62.095c3.87,2.443,8.345,3.681,13.301,3.681c6.673,0,12.089-2.307,16.113-6.859v5.488
		c0,2.89-1.136,5.217-3.376,6.917c-2.263,1.714-5.416,2.583-9.374,2.583c-3.17,0-6.427-0.487-9.679-1.447
		c-3.249-0.96-6.243-2.344-8.898-4.115l-0.237-0.158l-7.732,15.695l0.184,0.121c3.514,2.317,7.796,4.25,12.729,5.747
		C243.008,91.242,248.235,92,253.613,92c6.653,0,12.589-1.157,17.642-3.44c5.065-2.29,9.062-5.62,11.874-9.897
		c2.816-4.279,4.244-9.303,4.244-14.931V7.783h-22.914v6.188c-4.102-4.628-9.669-6.973-16.561-6.973
		c-4.881,0-9.299,1.22-13.133,3.625c-3.834,2.407-6.863,5.854-9.002,10.245c-2.136,4.384-3.219,9.493-3.219,15.183
		c0,5.84,1.121,11.081,3.332,15.576C228.09,56.133,231.175,59.655,235.045,62.095z M254.287,49.026c-2.972,0-5.415-1.138-7.26-3.383
		c-1.86-2.259-2.803-5.26-2.803-8.919c0-3.734,0.943-6.792,2.804-9.089c1.846-2.281,4.288-3.438,7.259-3.438
		c3.043,0,5.521,1.138,7.371,3.383c1.857,2.261,2.801,5.336,2.801,9.143c0,3.659-0.941,6.66-2.801,8.919
		C259.812,47.888,257.331,49.026,254.287,49.026z"/>
	<path fill="#2E2E2E" d="M331.258,44.556L318.177,7.949l-0.06-0.166h-23.753l25.317,59.525l-1.068,2.031
		c-1.238,2.545-3.327,3.782-6.389,3.782c-1.453,0-2.815-0.257-4.052-0.765c-1.239-0.51-2.571-1.4-3.962-2.645l-0.222-0.199
		l-9.571,15.383l-0.121,0.194l0.184,0.137c3.068,2.32,6.222,4.048,9.369,5.136c3.152,1.087,6.648,1.639,10.393,1.639
		c6.146,0,11.398-1.466,15.607-4.358c4.207-2.893,7.555-7.399,9.953-13.396l25.553-66.123l0.131-0.34h-23.074L331.258,44.556z"/>
	<path fill="#2E2E2E" d="M419.256,10.892c-5.092-2.583-11.125-3.894-17.932-3.894c-6.809,0-12.86,1.31-17.987,3.894
		c-5.137,2.586-9.168,6.295-11.983,11.022c-2.812,4.727-4.237,10.312-4.237,16.603c0,6.216,1.426,11.782,4.237,16.545
		c2.813,4.765,6.847,8.492,11.983,11.079c5.127,2.583,11.179,3.894,17.987,3.894c6.807,0,12.84-1.31,17.932-3.894
		c5.104-2.59,9.116-6.317,11.926-11.079c2.812-4.76,4.238-10.327,4.238-16.545c0-6.293-1.426-11.879-4.238-16.603
		C428.37,17.189,424.357,13.481,419.256,10.892z M409.088,48.445c-1.959,2.393-4.57,3.606-7.764,3.606
		c-3.27,0-5.918-1.213-7.877-3.606c-1.971-2.41-2.969-5.675-2.969-9.704c0-3.955,0.998-7.201,2.97-9.65
		c1.959-2.429,4.608-3.661,7.876-3.661c3.191,0,5.804,1.232,7.763,3.661c1.972,2.446,2.97,5.693,2.97,9.65
		C412.057,42.772,411.059,46.038,409.088,48.445z"/>
	<path fill="#2E2E2E" d="M506.045,21.915c-2.813-4.727-6.827-8.435-11.926-11.022c-5.094-2.583-11.128-3.894-17.935-3.894
		s-12.857,1.31-17.986,3.894c-5.139,2.587-9.169,6.295-11.981,11.022c-2.812,4.723-4.237,10.309-4.237,16.603
		c0,6.219,1.426,11.786,4.237,16.545c2.812,4.764,6.843,8.492,11.981,11.079c5.129,2.583,11.181,3.894,17.986,3.894
		c6.807,0,12.841-1.31,17.935-3.894c5.101-2.588,9.113-6.315,11.926-11.079c2.812-4.761,4.236-10.328,4.236-16.545
		C510.281,32.225,508.855,26.639,506.045,21.915z M483.949,48.445c-1.957,2.393-4.568,3.606-7.765,3.606
		c-3.267,0-5.916-1.213-7.875-3.606c-1.97-2.408-2.969-5.673-2.969-9.704c0-3.957,0.999-7.204,2.97-9.65
		c1.959-2.429,4.608-3.661,7.874-3.661c3.194,0,5.807,1.232,7.764,3.661c1.972,2.448,2.972,5.695,2.972,9.65
		C486.92,42.771,485.92,46.036,483.949,48.445z"/>
	<path fill="#2E2E2E" d="M28.702,157.697c0.781-0.461,1.869-0.694,3.235-0.694c4.942,0,11.615,2.142,19.835,6.361l0.22,0.112
		l7.736-14.665l-0.208-0.121c-8.517-4.931-17.571-7.431-26.911-7.431c-7.789,0-14.175,1.865-18.98,5.543
		c-4.824,3.693-7.271,8.775-7.271,15.104c0,4.079,1.114,7.452,3.31,10.024c2.181,2.558,4.775,4.504,7.711,5.782
		c2.91,1.271,6.579,2.519,10.907,3.71c3.325,0.887,5.742,1.692,7.183,2.395c1.376,0.672,2.045,1.496,2.045,2.521
		c0,0.806-0.397,1.412-1.214,1.854c-0.853,0.463-2.057,0.697-3.579,0.697c-3.323,0-6.897-0.638-10.624-1.893
		c-3.734-1.257-7.543-3.134-11.319-5.577l-0.237-0.153l-7.165,14.678l0.172,0.123c3.959,2.841,8.453,5.021,13.355,6.479
		c4.893,1.457,10.102,2.196,15.481,2.196c8.087,0,14.68-1.846,19.594-5.484c4.938-3.656,7.442-8.683,7.442-14.938
		c0-4.075-1.132-7.467-3.366-10.081c-2.218-2.593-4.851-4.558-7.824-5.839c-2.947-1.269-6.709-2.553-11.186-3.822
		c-3.341-0.893-5.797-1.696-7.3-2.395c-1.448-0.672-2.152-1.494-2.152-2.521C27.592,158.783,27.956,158.139,28.702,157.697z"/>
	<path fill="#2E2E2E" d="M109.291,184.761c-3.167,1.181-5.476,1.777-6.861,1.777c-1.564,0-2.784-0.463-3.626-1.376
		c-0.849-0.918-1.279-2.332-1.279-4.201v-20.596h15.018v-14.957H97.524v-16.923H74.498v16.923h-8.405v14.957h8.405v24.068
		c0,6.246,1.988,11.248,5.908,14.865c3.913,3.614,9.211,5.446,15.748,5.446c3.139,0,6.306-0.36,9.414-1.07
		c3.11-0.713,5.79-1.683,7.966-2.884l0.17-0.094l-4.153-16.034L109.291,184.761z"/>
	<path fill="#2E2E2E" d="M171.915,145.379c-5.094-2.583-11.127-3.894-17.933-3.894c-6.808,0-12.86,1.31-17.988,3.894
		c-5.137,2.587-9.168,6.295-11.982,11.021c-2.812,4.726-4.238,10.312-4.238,16.604c0,6.219,1.426,11.785,4.237,16.545
		c2.813,4.766,6.844,8.493,11.983,11.08c5.126,2.583,11.179,3.893,17.988,3.893c6.807,0,12.84-1.31,17.933-3.894
		c5.101-2.588,9.114-6.315,11.926-11.079c2.812-4.76,4.237-10.326,4.237-16.545c0-6.292-1.426-11.878-4.238-16.604
		C181.027,151.676,177.015,147.967,171.915,145.379z M161.746,182.932c-1.958,2.394-4.57,3.606-7.764,3.606
		c-3.269,0-5.918-1.214-7.876-3.606c-1.97-2.408-2.969-5.673-2.969-9.703c0-3.957,1-7.203,2.971-9.648
		c1.958-2.43,4.607-3.662,7.875-3.662c3.192,0,5.804,1.232,7.762,3.662c1.971,2.445,2.971,5.691,2.971,9.648
		C164.715,177.259,163.716,180.523,161.746,182.932z"/>
	<path fill="#2E2E2E" d="M230.236,144.151c-3.046,1.717-5.651,4.13-7.752,7.181v-9.062h-23.139v61.466h23.139v-29.389
		c0-3.789,1.346-6.815,3.999-8.996c2.667-2.193,6.366-3.306,10.993-3.306c1.692,0,2.998,0.074,3.88,0.222l0.291,0.047v-20.941h-0.25
		C237.265,141.374,233.51,142.308,230.236,144.151z"/>
	<path fill="#2E2E2E" d="M282.506,179.043l-13.083-36.607l-0.06-0.166h-23.751l25.316,59.525l-1.068,2.031
		c-1.236,2.545-3.325,3.781-6.387,3.781c-1.453,0-2.815-0.258-4.053-0.767c-1.24-0.511-2.573-1.399-3.963-2.646l-0.222-0.197
		l-9.571,15.383l-0.121,0.193l0.183,0.138c3.069,2.321,6.223,4.05,9.372,5.138c3.151,1.086,6.648,1.639,10.392,1.639
		c6.146,0,11.398-1.467,15.605-4.359c4.204-2.893,7.555-7.396,9.955-13.396l25.553-66.122l0.131-0.34h-23.076L282.506,179.043z"/>
</g>
</svg>
